<svg xmlns="http://www.w3.org/2000/svg" viewBox="0 0 100 100">
  <!-- Lobster body -->
  <ellipse cx="50" cy="55" rx="25" ry="20" fill="#e74c3c"/>
  <!-- Tail segments -->
  <ellipse cx="50" cy="78" rx="12" ry="6" fill="#c0392b"/>
  <ellipse cx="50" cy="86" rx="8" ry="4" fill="#c0392b"/>
  <path d="M42 90 Q50 98 58 90" stroke="#c0392b" stroke-width="3" fill="none"/>
  <!-- Head -->
  <ellipse cx="50" cy="35" rx="18" ry="15" fill="#e74c3c"/>
  <!-- Eyes -->
  <circle cx="42" cy="30" r="4" fill="#2c3e50"/>
  <circle cx="58" cy="30" r="4" fill="#2c3e50"/>
  <circle cx="43" cy="29" r="1.5" fill="white"/>
  <circle cx="59" cy="29" r="1.5" fill="white"/>
  <!-- Antennae -->
  <path d="M42 22 Q35 10 30 5" stroke="#c0392b" stroke-width="2" fill="none"/>
  <path d="M58 22 Q65 10 70 5" stroke="#c0392b" stroke-width="2" fill="none"/>
  <!-- Left claw -->
  <ellipse cx="22" cy="50" rx="12" ry="8" fill="#e74c3c" transform="rotate(-20 22 50)"/>
  <path d="M12 45 Q5 40 8 35 Q12 38 12 45" fill="#c0392b"/>
  <path d="M12 55 Q5 60 8 65 Q12 62 12 55" fill="#c0392b"/>
  <!-- Right claw -->
  <ellipse cx="78" cy="50" rx="12" ry="8" fill="#e74c3c" transform="rotate(20 78 50)"/>
  <path d="M88 45 Q95 40 92 35 Q88 38 88 45" fill="#c0392b"/>
  <path d="M88 55 Q95 60 92 65 Q88 62 88 55" fill="#c0392b"/>
  <!-- Legs -->
  <path d="M35 65 Q30 72 28 75" stroke="#c0392b" stroke-width="2" fill="none"/>
  <path d="M42 68 Q38 75 36 78" stroke="#c0392b" stroke-width="2" fill="none"/>
  <path d="M58 68 Q62 75 64 78" stroke="#c0392b" stroke-width="2" fill="none"/>
  <path d="M65 65 Q70 72 72 75" stroke="#c0392b" stroke-width="2" fill="none"/>
  <!-- Highlight -->
  <ellipse cx="45" cy="48" rx="8" ry="5" fill="#ff6b6b" opacity="0.5"/>
</svg>
